<svg xmlns="http://www.w3.org/2000/svg"  viewBox="0 0 64 64" width="64px" height="64px"><path d="M 32 3.2441406 C 30.343599 3.2441418 28.686053 3.6481429 27.183594 4.4570312 L 26.964844 4.5761719 L 26.304688 4.9316406 L 10.720703 13.322266 C 7.1983488 15.218833 5 18.900403 5 22.900391 L 5 41.099609 C 5 45.100497 7.1994293 48.781289 10.722656 50.677734 L 27.185547 59.542969 C 30.19132 61.160609 33.811488 61.160746 36.816406 59.542969 L 53.279297 50.677734 C 56.599234 48.890156 58.741272 45.51707 58.976562 41.785156 A 1.0003191 1.0003191 0 0 0 58.976562 41.783203 A 1.0003191 1.0003191 0 0 0 58.980469 41.744141 C 58.981924 41.722379 58.979184 41.70142 58.980469 41.679688 C 58.990751 41.486955 59 41.294022 59 41.099609 L 59 22.900391 C 59 18.900403 56.800356 15.219696 53.277344 13.322266 L 36.814453 4.4570312 C 35.311566 3.648211 33.656401 3.2441394 32 3.2441406 z M 32 5.2421875 C 33.329849 5.2421887 34.659073 5.5666172 35.867188 6.2167969 L 52.330078 15.082031 C 55.209066 16.632601 57 19.632379 57 22.900391 L 57 35.861328 C 56.416827 35.180092 55.734261 34.571162 54.941406 34.080078 L 38.111328 23.654297 C 35.533434 22.056988 32.604349 21.486056 29.806641 21.832031 C 27.733329 22.088425 25.732995 22.85191 24 24.070312 L 24 19 A 1.0001 1.0001 0 0 0 22.984375 17.986328 A 1.0001 1.0001 0 0 0 22 19 L 22 26.064453 A 1.0001 1.0001 0 0 0 22 26.396484 L 22 34.09375 C 22 38.089491 24.26625 41.745563 27.845703 43.521484 A 1.0001 1.0001 0 0 0 27.855469 43.527344 L 29.699219 44.417969 L 25.875 46.265625 A 1.0006568 1.0006568 0 1 0 26.744141 48.068359 L 36.144531 43.527344 A 1.0001 1.0001 0 0 0 36.154297 43.521484 C 39.733716 41.745603 42 38.089491 42 34.09375 L 42 28.416016 L 53.886719 35.78125 C 55.908426 37.03347 57.042269 39.019195 56.984375 41.330078 C 56.901523 44.508164 55.139402 47.40337 52.330078 48.916016 L 35.867188 57.78125 C 33.452104 59.081473 30.54904 59.081609 28.132812 57.78125 L 17.412109 52.007812 A 1.0001 1.0001 0 0 0 17.449219 51.996094 C 18.488934 51.849497 19.513714 51.559861 20.482422 51.091797 L 22.394531 50.167969 A 1.0001 1.0001 0 0 0 21.978516 48.261719 A 1.0001 1.0001 0 0 0 21.525391 48.367188 L 19.613281 49.291016 C 18.736622 49.714603 17.804625 49.971208 16.861328 50.068359 C 16.828444 50.071856 16.795096 50.076635 16.757812 50.080078 C 16.562976 50.097664 16.36722 50.097832 16.171875 50.101562 C 15.907004 50.106707 15.650475 50.092999 15.394531 50.078125 C 14.255215 49.992357 13.130264 49.683963 12.095703 49.126953 A 1.0001 1.0001 0 0 0 11.904297 49.042969 L 11.669922 48.916016 C 8.7911489 47.366461 7 44.368722 7 41.099609 L 7 22.900391 C 7 19.632379 8.7922762 16.631464 11.669922 15.082031 L 22.554688 9.2207031 C 22.202881 10.139702 22 11.123022 22 12.138672 L 22 14.191406 A 1.0001 1.0001 0 1 0 24 14.191406 L 24 12.138672 C 24 9.8619222 25.248223 7.7728787 27.253906 6.6933594 A 1.0001 1.0001 0 0 0 27.253906 6.6914062 L 27.914062 6.3359375 A 1.0001 1.0001 0 0 0 27.939453 6.3203125 L 28.132812 6.2167969 C 29.340355 5.5666853 30.670151 5.2421863 32 5.2421875 z M 37.117188 9.984375 C 36.729438 9.9479531 36.339078 10.141359 36.142578 10.505859 L 35.193359 12.267578 C 34.931359 12.753578 35.113609 13.359094 35.599609 13.621094 C 35.750609 13.702094 35.912266 13.740234 36.072266 13.740234 C 36.428266 13.740234 36.772125 13.549844 36.953125 13.214844 L 37.902344 11.453125 C 38.164344 10.967125 37.982094 10.361609 37.496094 10.099609 C 37.374594 10.034359 37.246437 9.9965156 37.117188 9.984375 z M 41.445312 12.316406 C 41.057703 12.279984 40.667203 12.473391 40.470703 12.837891 L 39.523438 14.597656 C 39.261437 15.083656 39.443688 15.689172 39.929688 15.951172 C 40.080687 16.032172 40.242344 16.072266 40.402344 16.072266 C 40.758344 16.072266 41.103203 15.882875 41.283203 15.546875 L 42.230469 13.785156 C 42.492469 13.299156 42.310219 12.693641 41.824219 12.431641 C 41.702969 12.366391 41.574516 12.328547 41.445312 12.316406 z M 45.775391 14.648438 C 45.387641 14.611781 44.997281 14.804672 44.800781 15.169922 L 43.853516 16.929688 C 43.591516 17.415687 43.773766 18.021203 44.259766 18.283203 C 44.410766 18.364203 44.572422 18.404297 44.732422 18.404297 C 45.088422 18.404297 45.433281 18.213906 45.613281 17.878906 L 46.560547 16.117188 C 46.822547 15.631188 46.640297 15.025672 46.154297 14.763672 C 46.032797 14.698422 45.904641 14.660656 45.775391 14.648438 z M 50.105469 16.978516 C 49.717719 16.941953 49.327359 17.1355 49.130859 17.5 L 48.183594 19.261719 C 47.921594 19.747719 48.103844 20.353234 48.589844 20.615234 C 48.740844 20.696234 48.9025 20.734375 49.0625 20.734375 C 49.4185 20.734375 49.763359 20.544984 49.943359 20.208984 L 50.890625 18.447266 C 51.152625 17.961266 50.970375 17.35575 50.484375 17.09375 C 50.362875 17.02825 50.234719 16.990703 50.105469 16.978516 z M 30.931641 23.740234 C 33.014696 23.654255 35.146423 24.169911 37.056641 25.353516 L 40 27.177734 L 40 34.09375 C 40 37.334009 38.166219 40.29039 35.263672 41.730469 L 32.001953 43.306641 L 28.736328 41.730469 L 28.730469 41.726562 L 28.726562 41.724609 C 25.830031 40.282632 24 37.330142 24 34.09375 L 24 26.648438 C 25.911172 24.85991 28.382433 23.845454 30.931641 23.740234 z"/></svg>